<?xml version="1.0" encoding="utf-8"?>
<!-- Svg Vector Icons : http://www.sfont.cn -->
<!DOCTYPE svg PUBLIC "-//W3C//DTD SVG 1.1//EN" "http://www.w3.org/Graphics/SVG/1.1/DTD/svg11.dtd">
<svg version="1.1" xmlns="http://www.w3.org/2000/svg" xmlns:xlink="http://www.w3.org/1999/xlink" x="0px" y="0px" viewBox="0 0 1000 1000" enable-background="new 0 0 1000 1000" xml:space="preserve">
<metadata> Svg Vector Icons : http://www.sfont.cn </metadata>
<g><path d="M380.2,10C526,10,645,130,645,276.5c0,72.7-29.6,139.3-77.3,187.5l0,0h-0.6l-1.6,1.9c15.9,16,31.8,31.1,47.7,46.8c7.7-3,15.4-5.5,23.3-8v-26.4c0-13.2,10.1-23.4,23.3-23.4h0.6h76.7c12.6,0,23,10.2,23,23.4v0.3v26.1c8.2,2.5,16.4,5.3,24.1,8.5l1.1,0.6c7.6,3,15.1,7.1,22.2,10.7l18.9-19c9.3-9.1,23.6-9.1,32.6,0l54.6,55.1c9.3,9.1,9.3,23.7,0,33L895,612.3c4.1,7.7,8.2,15.1,11.2,23.4c3.6,7.7,6.3,16.2,8.5,24.5h26.9c12.6,0,23,9.9,23,23.1v0.6V761c0,12.9-10.4,23.7-23,23.7h-0.5h-26.3c-2.2,8-4.9,16.2-8.5,23.9l-0.3,0.9c-3.3,8.3-6.9,15.4-11,22.5l18.6,18.8c9.3,9.1,9.3,23.9,0,33l-54.6,54.8c-9.1,9.1-23.3,9.1-32.6,0l-18.9-18.7c-7.4,4.1-15.1,7.7-23.3,11.3c-7.7,3.3-15.9,6.1-24.1,8.5V966c0,13.2-10.4,24-23,24h-0.8h-76.5c-13.2,0-23.3-10.7-23.3-24v-0.5v-25.9c-8.5-2.5-16.7-5.2-24.4-8.5H611c-7.7-3.6-15.1-7.2-22.2-11.3l-12.1,12.1v19c0,21.2-17.3,39.1-38.7,39.1H537H222c-21.1,0-38.4-17.9-38.4-39.1v-1.1v-33.6h-75.4c-3.3,0-5.7-0.6-8.2-1.1c-20.3-3.3-36.5-15.1-47.2-30.3c-11.5-16.5-17.5-36.3-17.5-55.6v-82.3c0-39.6,7.1-77.1,21.4-111.8c28.5-68.5,86.9-117.8,138.2-169.3l-1.6-1.9l0,0c-49.9-49.3-77.9-117.5-77.9-187.5C115.4,130,234.6,10,380.2,10L380.2,10z M698.2,622.5L698.2,622.5c27.4,0,52.1,11.3,70.2,29.4l0,0c17.8,17.9,29.1,42.7,29.1,70.2c0,27.3-11.2,52.3-29.1,70.5l-1.4,1.1c-17.8,17.3-42,28.1-68.8,28.1c-27.4,0-52.1-11.3-70.2-29.2c-18.1-18.2-29-43.2-29-70.5c0-27.5,11-52.3,29-70.2C646.1,633.8,670.8,622.5,698.2,622.5L698.2,622.5z M735.8,685L735.8,685c-9.6-10.2-22.7-15.7-37.5-15.7c-14.5,0-27.7,5.5-37.3,15.7c-9.3,9.1-15.4,22.3-15.4,37.1c0,14.6,6,27.8,15.4,37.4c9.6,9.7,22.8,15.4,37.3,15.4c14.2,0,26.8-5.2,36.2-14.3l1.4-1.1c9.6-9.6,15.6-22.8,15.6-37.4C751.4,707.3,745.4,694.1,735.8,685L735.8,685z M517,526.4L517,526.4l-14.5-14.9c-36.7,19.6-78.1,30.6-122.3,30.6c-43.9,0-85.5-11-122.3-30.6c-43.3,44.1-105.3,94.2-130,152.5c-10.1,25.6-15.4,52.8-15.4,82.9v82.3c0,3.6,0.6,6.6,1.6,9.3h100.1V735.9c0-12.9,10.1-22.8,23.3-22.8c12.6,0,23,9.9,23,22.8v137.7l0.3,3.6v34.9h238.5v-11.6l-16.7-16.8c-9.3-9.1-9.3-23.9,0-33l18.6-18.8c-4.1-7.1-7.7-14.9-11.3-23.4c-3-7.7-6.3-16-8.5-23.9h-26.3c-12.6,0-23.3-10.7-23.3-23.7v-0.6v-77.1c0-13.2,10.7-23.1,23.3-23.1h0.5h25.8c2.2-8.3,5.5-16.8,8.5-24.5l0.6-1.1c3.5-7.4,6.8-15.2,10.7-22.3l-18.6-18.7c-9.3-9.3-9.3-23.9,0-33L517,526.4L517,526.4z M766.5,556.1L766.5,556.1c-10.1-4.4-21.1-8-32.6-9.9c-11.3-2-20.3-11.6-20.3-23.4v-21.2h-30.7v21.2c0,11.3-7.7,20.9-18.9,23.4c-11.8,1.9-23.3,5-34.3,9.9l0,0c-11,4.4-21.1,10.5-30.7,17.1c-9.3,6-21.9,5-29.9-3L554,554.8l-22.2,22l15.6,15.7c7.1,7.7,8.8,20.4,2.5,29.5c-6.6,9.1-12.1,19.8-16.2,30.5l-0.6,1.1c-4.4,9.9-7.9,21.2-10.1,33c-1.4,11-11.2,20.1-23.3,20.1h-21.4v31.1h21.4c11.2,0,20.8,7.7,23,18.7c2.2,11.8,6,23.4,10.4,34.7l0,0l0,0c4.1,10.5,9.9,21.2,16.4,30.8c6.3,9.3,5.5,22-2.2,30l-15.6,15.1l22.2,22.1l15.1-15.1c7.7-7.7,20-9.1,29.4-2.5c9.8,6.1,19.7,12.1,30.1,16.2l1.1,0.3c11,4.4,21.9,7.7,32.9,10.2c11.5,1.6,20.3,11.3,20.3,22.9v22h30.7v-22c0-10.5,7.9-20.7,19.2-22.9c11.5-1.9,23-5.5,33.7-10.2h0.3c11-4.4,21.4-9.9,31.2-16.5c9-6.6,21.4-5.8,29.6,2.5l15.4,15.1l21.9-22.1l-15.4-15.1c-7.7-7.4-9.1-20.1-3-30c6.6-9.4,12.3-19.8,16.7-29.8l0.6-1.1c4.1-10.7,7.7-22,9.9-33c1.6-11.8,11-20.4,23-20.4h21.4v-31.1h-21.4v-0.3c-11,0-20.3-7.2-22.8-19c-2.2-11.6-5.8-23.4-10.1-33.9c-4.7-11-10.4-21.5-17-31.7c-6.3-8.5-5.2-21.2,2.8-29.5l15.4-15.7l-21.9-22l-15.4,15.4c-7.7,7.4-20,9.6-29.1,3c-9.9-6.6-20.3-12.1-30.7-16.8L766.5,556.1L766.5,556.1z M380.2,87.6L380.2,87.6c-103.1,0-187.5,84.2-187.5,188.8c0,104.6,85,188,187.5,188c102.5,0,187.5-83.4,187.5-188C567.7,171.9,483.8,87.6,380.2,87.6L380.2,87.6z"/></g>
</svg>